<svg xmlns="http://www.w3.org/2000/svg" viewBox="0 0 512 512">
  <defs>
    <linearGradient id="bg" x1="0" y1="0" x2="1" y2="1">
      <stop offset="0%" stop-color="#5c3a1b"/>
      <stop offset="100%" stop-color="#2a1a0c"/>
    </linearGradient>
  </defs>
  <rect width="512" height="512" rx="100" fill="url(#bg)"/>
  <g transform="translate(256,280)">
    <!-- Cup body -->
    <ellipse cx="0" cy="40" rx="110" ry="20" fill="#1a0f06" opacity="0.3"/>
    <rect x="-100" y="-80" width="200" height="130" rx="20" fill="#f5e6d0"/>
    <ellipse cx="0" cy="-80" rx="100" ry="25" fill="#e8c9a0"/>
    <ellipse cx="0" cy="-80" rx="80" ry="18" fill="#5c3a1b"/>
    <!-- Handle -->
    <path d="M100,-40 Q155,-40 155,10 Q155,50 100,50" stroke="#f5e6d0" stroke-width="18" fill="none" stroke-linecap="round"/>
    <!-- Steam -->
    <path d="M-30,-120 Q-30,-160 -10,-155 Q10,-150 10,-180 Q10,-200 30,-210" stroke="#f5e6d0" stroke-width="6" fill="none" opacity="0.6" stroke-linecap="round"/>
    <path d="M20,-115 Q20,-150 40,-148 Q60,-146 60,-175 Q60,-195 80,-205" stroke="#f5e6d0" stroke-width="6" fill="none" opacity="0.4" stroke-linecap="round"/>
    <path d="M-70,-118 Q-70,-148 -50,-145 Q-30,-142 -30,-170 Q-30,-188 -10,-198" stroke="#f5e6d0" stroke-width="6" fill="none" opacity="0.5" stroke-linecap="round"/>
  </g>
  <!-- Text -->
  <text x="256" y="460" text-anchor="middle" font-family="system-ui,sans-serif" font-weight="700" font-size="52" fill="#fbbf24" letter-spacing="6">BREWFIND</text>
</svg>